<?xml version="1.0" encoding="utf-8"?>
<!-- Generator: Adobe Illustrator 19.2.1, SVG Export Plug-In . SVG Version: 6.00 Build 0)  -->
<svg version="1.1" xmlns="http://www.w3.org/2000/svg" xmlns:xlink="http://www.w3.org/1999/xlink" x="0px" y="0px"
	 viewBox="0 0 288 144" style="enable-background:new 0 0 288 144;" xml:space="preserve">
<style type="text/css">
	.st0{fill:none;}
	.st1{fill:#51545D;}
</style>
<g id="BoundingBox">
	<rect x="39.3" y="43.1" class="st0" width="209.1" height="56.6"/>
</g>
<g id="Layer_1">
	<g>
		<path class="st1" d="M81.5,86.1c-4.5,3.9-8.6,5.4-14.2,5.4c-5.8,0-10.4-1.9-13.8-5.7c-3.2-3.6-5.1-8.6-5.1-13.8
			c0-6.1,2.5-11.9,6.7-15.5c3.3-2.8,7.5-4.3,12.5-4.3c5.9,0,9.9,1.6,14.4,5.7l-5.9,6.2c-2.7-2.3-5.3-3.4-8.1-3.4
			c-6.1,0-10.3,4.5-10.3,11c0,6.6,4.5,11.3,10.8,11.3c3.2,0,5.6-1,7.5-3.2L81.5,86.1z"/>
		<path class="st1" d="M108.2,64.5V81c0,4-0.9,6.3-3.1,8.1c-2.2,1.8-5.3,2.7-9,2.7c-3.9,0-7.3-1-9.4-2.9c-2-1.8-2.9-4.3-2.9-7.9
			V64.5h8.6v15.9c0,2.7,1.3,4.3,3.6,4.3c2.2,0,3.5-1.4,3.5-3.6V64.5H108.2z"/>
		<path class="st1" d="M122.2,64.5v3c1.7-2.9,3.5-4,6.7-4c2.6,0,5.1,1,6.8,2.6c1.8,1.8,2.4,4,2.4,8.6v16.1h-8.6V74.7
			c0-2.6-1.4-4.1-3.6-4.1c-2.2,0-3.6,1.6-3.6,4.2v15.9h-8.6V64.5H122.2z"/>
		<path class="st1" d="M163.4,52.9h8.6v37.8h-8.6v-3c-1.2,1.6-1.9,2.3-3.1,2.8c-1.5,0.7-3.4,1.1-5.4,1.1c-8.1,0-13.4-5.6-13.4-13.9
			c0-4.5,1.5-8.1,4.4-10.7c2.6-2.3,5.9-3.7,9.1-3.7c3.5,0,5.9,1,8.4,3.4V52.9z M150.7,78c0,4,2.8,7,6.5,7c3.5,0,6.2-3.1,6.2-7
			c0-4.2-2.7-7.3-6.2-7.3C153.4,70.6,150.7,73.8,150.7,78z"/>
		<path class="st1" d="M197.4,64.5h8.6v26.3h-8.6v-3c-2.4,2.7-5.2,4-8.9,4c-7.5,0-12.9-5.8-12.9-13.8c0-8.4,5.7-14.5,13.6-14.5
			c3.3,0,5.6,1.1,8.2,3.9V64.5z M184.8,77.8c0,4,2.7,7.1,6.2,7.1c3.6,0,6.5-3.3,6.5-7.3c0-4.2-2.7-7.1-6.4-7.1
			C187.4,70.6,184.8,73.6,184.8,77.8z"/>
		<path class="st1" d="M220.1,64.5v3.6c0.7-1.9,1.2-2.7,2.3-3.5c1-0.7,2.4-1.1,3.8-1.1h0.9v8.9c-0.6-0.1-1.2-0.1-1.6-0.1
			c-1.9,0-3.6,0.8-4.5,2.1c-0.7,0.9-0.9,1.9-0.9,4.1v12.4h-8.6V64.5H220.1z"/>
		<path class="st1" d="M239.6,57c0,2.6-2,4.5-4.6,4.5c-2.7,0-4.6-1.9-4.6-4.6c0-2.7,1.9-4.6,4.7-4.6C237.7,52.3,239.6,54.2,239.6,57
			z M239.4,90.8h-8.6V64.5h8.6V90.8z"/>
	</g>
</g>
</svg>
