<?xml version="1.0" encoding="utf-8"?>
<!-- Generator: Adobe Illustrator 19.0.0, SVG Export Plug-In . SVG Version: 6.00 Build 0)  -->
<svg version="1.1" id="Layer_1" xmlns="http://www.w3.org/2000/svg" xmlns:xlink="http://www.w3.org/1999/xlink" x="0px" y="0px"
	 viewBox="-211.7 278.1 209.4 56.6" style="enable-background:new -211.7 278.1 209.4 56.6;" xml:space="preserve">
<style type="text/css">
	.st0{fill:none;}
	.st1{fill:#FFFFFF;}
</style>
<g id="BoundingBox">
	<rect x="-211.7" y="278.1" class="st0" width="209.1" height="56.6"/>
</g>
<g id="Layer_1_1_">
	<g>
		<path class="st1" d="M-169.5,321.1c-4.5,3.9-8.6,5.4-14.2,5.4c-5.8,0-10.4-1.9-13.8-5.7c-3.2-3.6-5.1-8.6-5.1-13.8
			c0-6.1,2.5-11.9,6.7-15.5c3.3-2.8,7.5-4.3,12.5-4.3c5.9,0,9.9,1.6,14.4,5.7l-5.9,6.2c-2.7-2.3-5.3-3.4-8.1-3.4
			c-6.1,0-10.3,4.5-10.3,11c0,6.6,4.5,11.3,10.8,11.3c3.2,0,5.6-1,7.5-3.2L-169.5,321.1z"/>
		<path class="st1" d="M-142.8,299.5V316c0,4-0.9,6.3-3.1,8.1c-2.2,1.8-5.3,2.7-9,2.7c-3.9,0-7.3-1-9.4-2.9c-2-1.8-2.9-4.3-2.9-7.9
			v-16.5h8.6v15.9c0,2.7,1.3,4.3,3.6,4.3c2.2,0,3.5-1.4,3.5-3.6v-16.6H-142.8z"/>
		<path class="st1" d="M-128.8,299.5v3c1.7-2.9,3.5-4,6.7-4c2.6,0,5.1,1,6.8,2.6c1.8,1.8,2.4,4,2.4,8.6v16.1h-8.6v-16.1
			c0-2.6-1.4-4.1-3.6-4.1s-3.6,1.6-3.6,4.2v15.9h-8.6v-26.2H-128.8z"/>
		<path class="st1" d="M-87.6,287.9h8.6v37.8h-8.6v-3c-1.2,1.6-1.9,2.3-3.1,2.8c-1.5,0.7-3.4,1.1-5.4,1.1c-8.1,0-13.4-5.6-13.4-13.9
			c0-4.5,1.5-8.1,4.4-10.7c2.6-2.3,5.9-3.7,9.1-3.7c3.5,0,5.9,1,8.4,3.4V287.9z M-100.3,313c0,4,2.8,7,6.5,7c3.5,0,6.2-3.1,6.2-7
			c0-4.2-2.7-7.3-6.2-7.3C-97.6,305.6-100.3,308.8-100.3,313z"/>
		<path class="st1" d="M-53.6,299.5h8.6v26.3h-8.6v-3c-2.4,2.7-5.2,4-8.9,4c-7.5,0-12.9-5.8-12.9-13.8c0-8.4,5.7-14.5,13.6-14.5
			c3.3,0,5.6,1.1,8.2,3.9L-53.6,299.5L-53.6,299.5z M-66.2,312.8c0,4,2.7,7.1,6.2,7.1c3.6,0,6.5-3.3,6.5-7.3c0-4.2-2.7-7.1-6.4-7.1
			C-63.6,305.6-66.2,308.6-66.2,312.8z"/>
		<path class="st1" d="M-30.9,299.5v3.6c0.7-1.9,1.2-2.7,2.3-3.5c1-0.7,2.4-1.1,3.8-1.1h0.9v8.9c-0.6-0.1-1.2-0.1-1.6-0.1
			c-1.9,0-3.6,0.8-4.5,2.1c-0.7,0.9-0.9,1.9-0.9,4.1v12.4h-8.6v-26.4H-30.9z"/>
		<path class="st1" d="M-11.4,292c0,2.6-2,4.5-4.6,4.5c-2.7,0-4.6-1.9-4.6-4.6c0-2.7,1.9-4.6,4.7-4.6
			C-13.3,287.3-11.4,289.2-11.4,292z M-11.6,325.8h-8.6v-26.3h8.6V325.8z"/>
	</g>
</g>
</svg>
