<?xml version="1.0" encoding="utf-8"?>
<!-- Generator: Adobe Illustrator 19.2.1, SVG Export Plug-In . SVG Version: 6.00 Build 0)  -->
<svg version="1.1" id="Layer_1" xmlns="http://www.w3.org/2000/svg" xmlns:xlink="http://www.w3.org/1999/xlink" x="0px" y="0px"
	 viewBox="0 0 419.8 183" style="enable-background:new 0 0 419.8 183;" xml:space="preserve">
<style type="text/css">
	.st0{display:none;fill:#F59EBD;stroke:#FFFFFF;}
	.st1{fill:url(#SVGID_2_);}
	.st2{fill:url(#SVGID_3_);}
	.st3{fill:url(#SVGID_5_);}
	.st4{fill:#008752;}
</style>
<rect x="-48" y="-31.5" class="st0" width="534" height="262.5"/>
<g>
	<g>
		
			<linearGradient id="SVGID_2_" gradientUnits="userSpaceOnUse" x1="1504.1652" y1="1268.5413" x2="1872.0144" y2="1134.6552" gradientTransform="matrix(1 0 0 -1 -1458.1133 1280.8145)">
			<stop  offset="0" style="stop-color:#FFE000;stop-opacity:0"/>
			<stop  offset="0.4589" style="stop-color:#FFDE00;stop-opacity:0.8402"/>
			<stop  offset="0.55" style="stop-color:#FFDD00"/>
			<stop  offset="0.6072" style="stop-color:#FFDE00;stop-opacity:0.9041"/>
			<stop  offset="1" style="stop-color:#FFE000;stop-opacity:0"/>
		</linearGradient>
		<path id="SVGID_1_" class="st1" d="M418.8,132.7C409.6,82.4,371.3,54,336,36.9c-47.4-21.3-90.1-24.4-124.2-23.1
			c-34.8,1.7-60.9,7.9-92,15.5C89.7,37.6,54.6,47.4,26,70.5c-2.4,4.6-4.5,9.2-6.2,13.9C45.2,60.1,80.7,49,112.2,40.1
			c32.5-8.3,61.1-14.4,97.2-16c35.4-1.2,78,2.5,124,23.7c32.1,15.8,65.5,41.9,75.6,84.9H418.8z"/>
	</g>
</g>
<g>
	<g>
		
			<linearGradient id="SVGID_3_" gradientUnits="userSpaceOnUse" x1="1500.7053" y1="1259.8372" x2="1860.4797" y2="1128.8899" gradientTransform="matrix(1 0 0 -1 -1458.1133 1280.8145)">
			<stop  offset="0" style="stop-color:#F78E20;stop-opacity:0"/>
			<stop  offset="0.4713" style="stop-color:#F79020;stop-opacity:0.8402"/>
			<stop  offset="0.561" style="stop-color:#F78E1E"/>
			<stop  offset="1" style="stop-color:#F78E20;stop-opacity:0"/>
		</linearGradient>
		<path id="SVGID_4_" class="st2" d="M409.4,132.6c-11.1-41.9-41-66.8-71.2-82.9c-45.7-22.8-89.5-27-125.3-26.4
			c-36.5,1.1-64.9,8.1-97.2,15.9c-31.3,8.4-68,19.7-94.3,43.5c-3.7,3.4-2.5,5.1-3.9,9.7C41.3,67.7,76,56.8,108.4,47.7
			c33.4-8.5,64-13.2,101.6-14.2c36.9-0.5,80.4,4.6,125,26.6c26.4,13,55.4,39.6,64.5,72.5H409.4z"/>
	</g>
</g>
<g>
	<g>
		
			<linearGradient id="SVGID_5_" gradientUnits="userSpaceOnUse" x1="1497.7931" y1="1249.4087" x2="1848.166" y2="1121.8834" gradientTransform="matrix(1 0 0 -1 -1458.1133 1280.8145)">
			<stop  offset="0" style="stop-color:#E41C3F;stop-opacity:0"/>
			<stop  offset="0.5481" style="stop-color:#E3173E"/>
			<stop  offset="0.9998" style="stop-color:#E41C3F;stop-opacity:0"/>
		</linearGradient>
		<path id="SVGID_7_" class="st3" d="M399.6,132.7c-10-33.5-35-55.4-60.2-70.4C295.5,38,251,32.7,213.8,32.7
			c-37.9,0.4-68.5,6.2-101.7,14.1c-32.3,8.5-68.4,19.8-93.3,44.4c-3.5,3.4-2.4,7.8-3.3,12.5c21.9-25,56.7-36.9,89.8-46.1
			c34-8.6,66.5-14.4,105.2-14.8c38.1,0.1,82.6,5.6,125,29.7c22,13.4,43.5,32.3,53.9,60.2L399.6,132.7z"/>
	</g>
</g>
<path class="st4" d="M307.7,95.7h7.7v4.1h0.2c2.1-3.3,5.6-4.9,9-4.9c8.6,0,10.8,4.9,10.8,12.2v18.2h-8.1v-16.7
	c0-4.9-1.4-7.3-5.2-7.3c-4.4,0-6.3,2.5-6.3,8.5v15.5h-8.1V95.7"/>
<path class="st4" d="M106.5,112.4c0,5.3-1.4,13.9-13.6,13.9c-6.8,0-13.5-3.7-13.5-12.7v-3.5h8.1v1.8c0,4,1,6.8,5.2,6.8
	c4.8,0,4.8-3.8,4.8-6.7V84.4h9V112.4"/>
<path class="st4" d="M112.6,104.8c0.5-7.6,7.3-9.9,13.9-9.9c5.9,0,13,1.3,13,8.4v15.4c0,2.7,0.3,5.4,1,6.6h-8.3
	c-0.3-0.9-0.5-1.9-0.6-2.9c-2.6,2.7-6.4,3.7-10,3.7c-5.6,0-10.1-2.8-10.1-8.9c0-6.7,5-8.3,10.1-9c5-0.7,9.6-0.6,9.6-3.9
	c0-3.5-2.4-4-5.3-4c-3.1,0-5.1,1.3-5.4,4.5L112.6,104.8 M131.4,110.8c-1.4,1.2-4.2,1.3-6.8,1.7c-2.5,0.5-4.8,1.4-4.8,4.4
	s2.4,3.8,5,3.8c6.4,0,6.6-5,6.6-6.8V110.8z"/>
<path class="st4" d="M145.5,95.7h7.7v4h0.1c2.1-3,5.2-4.8,9.1-4.8c3.7,0,7,1.4,8.6,4.9c1.7-2.6,4.8-4.9,8.9-4.9
	c6.3,0,10.8,2.9,10.8,10.6v19.8h-8.1v-16.8c0-3.9-0.3-7.2-5-7.2c-4.6,0-5.4,3.8-5.4,7.5v16.5H164v-16.6c0-3.4,0.2-7.4-4.9-7.4
	c-1.6,0-5.5,1-5.5,6.8v17.2h-8.1V95.7"/>
<rect x="196.8" y="93.9" class="st4" width="8.1" height="31.4"/>
<path class="st4" d="M217.5,112.5c0.2,5.2,2.7,7.5,7.3,7.5c3.3,0,5.9-2,6.4-3.8h7.2c-2.3,7-7.2,10-13.9,10
	c-9.3,0-15.1-6.4-15.1-15.6c0-8.9,6.1-15.6,15.1-15.6c10.1,0,15,8.5,14.4,17.6L217.5,112.5 M230.7,107.3c-0.7-4.1-2.5-6.3-6.5-6.3
	c-5.2,0-6.6,4-6.8,6.3H230.7z"/>
<path class="st4" d="M249.4,115.7c0.1,3.6,3,5,6.2,5c2.4,0,5.3-0.9,5.3-3.8c0-2.5-3.4-3.3-9.2-4.6c-4.7-1-9.4-2.7-9.4-7.9
	c0-7.6,6.5-9.5,12.9-9.5c6.5,0,12.4,2.2,13.1,9.5h-7.7c-0.2-3.2-2.6-4-5.6-4c-1.8,0-4.5,0.3-4.5,2.8c0,2.9,4.6,3.3,9.2,4.4
	c4.8,1.1,9.4,2.8,9.4,8.3c0,7.8-6.8,10.3-13.5,10.3c-6.9,0-13.6-2.6-13.9-10.4h7.7"/>
<path class="st4" d="M287.7,94.9c9.3,0,15.4,6.2,15.4,15.6s-6,15.6-15.4,15.6c-9.3,0-15.3-6.2-15.3-15.6
	C272.4,101.1,278.4,94.9,287.7,94.9 M287.7,120c5.6,0,7.2-4.7,7.2-9.5s-1.7-9.5-7.2-9.5s-7.2,4.8-7.2,9.5S282.2,120,287.7,120z"/>
<path class="st4" d="M219.2,66.2c-0.2-1.6-1.3,0-1.5,0.3c-2.6,2.2-7.9,0.9-13.7,1.2c0,0-4.7,0.2-7.9,1.7
	c-10.4,4.4-6.9,13.5-6.9,13.5c0,0.6-0.7,1.2-1.1,1.5c-2.7,1.8-3.6,4.6-3.6,4.6h1.3c2.1-4.8,4.6-4.2,4.6-4.2c4.7,5.4,16.1,5.6,22.6-3
	C219.7,73.3,219.4,67.8,219.2,66.2 M216.6,69.5c-1.7,1.8-3.7,3.7-5.4,4.9c-1.3,0.8-2.9,1.5-4.3,1.8c-2.8,0.7-5.9,0.8-8.1,1.5
	c-2.2,0.7-5,2-6.9,3.9c-0.1,0-0.1,0-0.2,0v-0.1c1.7-2.4,4.1-3.6,6.6-4.7c2.9-1.2,5.9-0.8,8.8-1.7c1.7-0.5,3.4-1.3,4.9-2.2
	c1.7-1,3-2.4,4.7-3.5C216.6,69.4,216.7,69.4,216.6,69.5z"/>
<path class="st4" d="M164.9,155.8c-0.1-1.6-1.5-2.1-3-2.1s-2.7,0.6-2.7,1.7c0,1.2,1.2,1.5,3.5,1.9c1.7,0.3,3.5,0.7,3.5,2.5
	c0,2.3-2.1,3-4,3c-2.4,0-4.2-0.8-4.3-3.4h1c0.2,2,1.5,2.5,3.3,2.5c1.4,0,2.9-0.4,2.9-1.9c0-1.4-1.7-1.6-3.5-1.9
	c-2.3-0.4-3.5-1-3.5-2.5c0-2.1,1.9-2.8,3.8-2.8c1.9,0,3.9,0.7,4,3H164.9z"/>
<path class="st4" d="M169.2,153h1v1.5h-1V153z M169.2,155.7h1v7h-1V155.7z"/>
<path class="st4" d="M179.6,158.2c0-1.4-0.8-1.8-2.1-1.8c-1.9,0-2.8,1-2.8,2.6v3.8h-1v-7h1v1.4l0,0c0.3-0.7,1.3-1.6,2.9-1.6
	c2.3,0,3,1.2,3,2.9v4.3h-1L179.6,158.2L179.6,158.2z"/>
<path class="st4" d="M191.2,160.2c-0.2,0.9-1,2.7-3.5,2.7s-3.9-1.5-3.9-3.7c0-2.1,1.3-3.7,3.9-3.7c2.4,0,3.3,1.5,3.5,2.5h-1
	c-0.3-1.2-1.2-1.7-2.5-1.7c-2,0-2.9,1.3-2.9,2.9c0,1.7,1,2.9,2.9,2.9c1.5,0,2.3-0.8,2.5-1.9H191.2z"/>
<path class="st4" d="M201.6,160.4c-0.4,1.2-1.4,2.4-3.7,2.4c-2.8,0-3.8-2-3.8-3.7c0-1.9,1.2-3.7,3.8-3.7c1.8,0,3.9,0.8,3.9,3.9h-6.7
	c0,1.4,1,2.6,2.8,2.6c1.7,0,2.4-0.5,2.8-1.6h0.9V160.4z M200.8,158.7c-0.3-1.7-1.5-2.3-2.9-2.3c-1.3,0-2.6,0.6-2.9,2.3H200.8z"/>
<path class="st4" d="M213.1,155.7h-2.9V155h0.7c1.5,0,2.1-0.2,2.4-1.8h0.8v9.5h-1V155.7z"/>
<path class="st4" d="M219.9,160.5c0.1,0.9,0.9,1.6,2.4,1.6c1.8,0,2.8-1.1,2.9-4.1l0,0c-0.3,0.7-1.2,1.7-2.9,1.7
	c-2.2,0-3.6-1.2-3.6-3.2c0-2.1,1.6-3.2,3.6-3.2c2.2,0,3.8,1.2,3.8,4.5c0,3.1-1.2,5.2-3.8,5.2c-2.3,0-3.3-1.2-3.4-2.4h1V160.5z
	 M222.3,154c-1.5,0-2.6,0.9-2.6,2.4c0,1.3,1,2.4,2.6,2.4c2.2,0,2.7-1.4,2.7-2.3C224.9,155.3,224.2,154,222.3,154z"/>
<path class="st4" d="M236.8,162.7h-7.2c0.1-1.1,0.4-2.2,3.3-3.7c2.1-1.1,2.9-1.6,2.9-2.9c0-1.4-0.9-2-2.4-2c-2.1,0-2.6,1.3-2.6,2.5
	h-1c0-2.4,1.4-3.4,3.6-3.4c2.5,0,3.3,1.5,3.3,2.9c0,1.6-1,2.3-2.3,3c-2.6,1.4-3.3,1.9-3.6,2.7h6V162.7z"/>
<path class="st4" d="M247.7,162.7h-7.2c0.1-1.1,0.4-2.2,3.3-3.7c2.1-1.1,2.9-1.6,2.9-2.9c0-1.4-0.9-2-2.4-2c-2.1,0-2.6,1.3-2.6,2.5
	h-1c0-2.4,1.4-3.4,3.6-3.4c2.5,0,3.3,1.5,3.3,2.9c0,1.6-1,2.3-2.3,3c-2.6,1.4-3.4,1.9-3.6,2.7h6V162.7z"/>
<path class="st4" d="M112.4,135h2.5l6.1,7.7l0,0V135h2.1v10.3h-2.4l-6.2-7.7l0,0v7.7h-2.1V135z"/>
<path class="st4" d="M130.5,135h2.6l4.6,10.3h-2.4l-1.1-2.5h-4.8l-1.1,2.5H126L130.5,135z M133.5,141.2l-1.8-4.3l-1.8,4.3H133.5z"/>
<path class="st4" d="M142.5,136.6h-3.9V135h9.9v1.6h-3.9v8.7h-2.2L142.5,136.6L142.5,136.6z"/>
<path class="st4" d="M151.4,135h2.2v5.8c0,1.4,0.1,3.2,2.9,3.2c2.8,0,2.9-1.7,2.9-3.2V135h2.2v5.9c0,1.7-0.1,4.7-5,4.7
	c-5,0-5-3-5-4.7V135H151.4z"/>
<path class="st4" d="M165.4,135h6.5c2.6,0,3.5,1.2,3.5,2.8c0,1.3-0.7,2.2-1.7,2.5l0,0c1.2,0.3,1.5,1.3,1.5,2.8c0,0.5,0,1.6,0.4,2.2
	h-2.3c-0.2-0.3-0.3-0.8-0.3-1.5c0-1.5-0.2-2.5-1.8-2.5h-3.7v4.1h-2.1L165.4,135L165.4,135z M171.3,139.6c1.2,0,1.8-0.4,1.8-1.5
	s-0.7-1.5-1.8-1.5h-3.7v3H171.3z"/>
<path class="st4" d="M182.5,135h2.6l4.6,10.3h-2.4l-1.1-2.5h-4.8l-1.1,2.5H178L182.5,135z M185.5,141.2l-1.8-4.3l-1.8,4.3H185.5z"/>
<path class="st4" d="M192.5,135h2.2v8.6h6.2v1.7h-8.4V135z"/>
<path class="st4" d="M215,134.8c1.6,0,4.8,0.3,5,3.3h-2.3c-0.1-0.8-0.8-1.7-2.6-1.7c-1.4,0-2.4,0.4-2.4,1.4c0,2.4,7.7,0.1,7.7,4.5
	c0,2.7-2.8,3.3-4.9,3.3c-3.7,0-5.2-1.5-5.2-3.6h2.3c0.1,1.4,1.2,2,3,2c1.3,0,2.5-0.4,2.5-1.5c0-2.6-7.6-0.3-7.6-4.6
	C210.4,135.6,212.5,134.8,215,134.8z"/>
<path class="st4" d="M223,140.2c0-2.9,1.7-5.4,6-5.4s6.1,2.5,6.1,5.4s-1.7,5.4-6.1,5.4C224.7,145.6,223,143.1,223,140.2z
	 M232.9,140.2c0-2.3-1.4-3.8-3.8-3.8c-2.4,0-3.8,1.6-3.8,3.8c0,2.3,1.4,3.8,3.8,3.8S232.9,142.4,232.9,140.2z"/>
<path class="st4" d="M238.5,135h2.2v5.8c0,1.4,0.1,3.2,2.9,3.2c2.8,0,2.9-1.7,2.9-3.2V135h2.2v5.9c0,1.7-0.1,4.7-5,4.7
	c-5,0-5-3-5-4.7V135H238.5z"/>
<path class="st4" d="M252.5,135h6.5c2.6,0,3.5,1.2,3.5,2.8c0,1.3-0.7,2.2-1.7,2.5l0,0c1.2,0.3,1.5,1.3,1.5,2.8c0,0.5,0,1.6,0.4,2.2
	h-2.3c-0.2-0.3-0.3-0.8-0.3-1.5c0-1.5-0.2-2.5-1.8-2.5h-3.7v4.1h-2.2L252.5,135L252.5,135z M258.4,139.6c1.2,0,1.8-0.4,1.8-1.5
	s-0.7-1.5-1.8-1.5h-3.7v3H258.4z"/>
<path class="st4" d="M274.6,138.8c-0.2-1.6-1.5-2.5-3.3-2.5c-2,0-3.5,1.3-3.5,4c0,2.1,1.5,3.6,3.6,3.6c2.2,0,3-1.5,3.2-2.6h2.3
	c-0.3,2-1.6,4.2-5.9,4.2c-3.7,0-5.5-2.5-5.5-5.4s1.7-5.4,5.7-5.4c3.5,0,5.4,1.9,5.6,4.1L274.6,138.8L274.6,138.8z"/>
<path class="st4" d="M280.6,135h8.9v1.6h-6.8v2.6h6.5v1.6h-6.5v2.8h6.9v1.6h-9.1V135H280.6z"/>
<path class="st4" d="M297.2,134.8c1.6,0,4.7,0.3,5,3.3h-2.3c-0.1-0.8-0.8-1.7-2.6-1.7c-1.4,0-2.4,0.4-2.4,1.4c0,2.4,7.7,0.1,7.7,4.5
	c0,2.7-2.7,3.3-4.9,3.3c-3.7,0-5.2-1.5-5.2-3.6h2.3c0.1,1.4,1.2,2,3,2c1.3,0,2.5-0.4,2.5-1.5c0-2.5-7.6-0.3-7.6-4.6
	C292.6,135.6,294.6,134.8,297.2,134.8z"/>
<g>
	<path class="st4" d="M338.6,96.7H337v-1h4.2v1h-1.6v4.2h-1.1v-4.2H338.6z"/>
	<path class="st4" d="M341.8,95.8h1.6l1.2,3.6l0,0l1.1-3.6h1.6v5.2h-1.1v-3.7l0,0l-1.3,3.7H344l-1.3-3.6l0,0v3.6h-1.1v-5.2H341.8z"
		/>
</g>
</svg>
