<?xml version="1.0" encoding="utf-8"?>
<!-- Generator: Adobe Illustrator 19.2.1, SVG Export Plug-In . SVG Version: 6.00 Build 0)  -->
<svg version="1.1" xmlns="http://www.w3.org/2000/svg" xmlns:xlink="http://www.w3.org/1999/xlink" x="0px" y="0px"
	 viewBox="0 0 660.1 175.6" style="enable-background:new 0 0 660.1 175.6;" xml:space="preserve">
<style type="text/css">
	.st0{fill:none;}
	.st1{fill:#3B6E98;}
	.st2{fill:#FAA620;}
</style>
<g id="BoundingBox">
	<rect x="-0.5" class="st0" width="660.5" height="178"/>
</g>
<g id="Logo">
	<g>
		<path id="XMLID_20_" class="st1" d="M560.3,51.9c-0.1-6.4-4.6-7.2-8.6-7.2v-2.5l20.5-2.8L573,52h0.3c3.8-7.2,12.8-14.4,25.5-14.4
			c10.7,0,27.3,6.4,27.3,32.9v46.2h-14.1V72.1c0-12.5-4.6-23-17.9-23c-9.1,0-16.3,6.6-18.8,14.4c-0.6,1.8-0.9,4.3-0.9,6.6v46.6
			h-14.1C560.4,116.7,560.4,54.5,560.3,51.9z"/>
		<path id="XMLID_17_" class="st1" d="M213.4,70.3c0.2-8.8-3.7-22.9-19.3-22.9c-14.4,0-20.5,13.1-21.6,22.9H213.4z M172.3,80.4
			c0.3,19,12.3,26.8,26.3,26.8c10.1,0,16.3-1.8,21.4-3.8l2.6,9.9c-5,2.2-13.6,4.9-25.9,4.9c-23.7,0-38.1-15.8-38.1-39
			c0-23.5,13.9-41.9,36.5-41.9c25.2,0,31.8,22.3,31.8,36.5c0,2.9-0.2,5.1-0.5,6.7L172.3,80.4z"/>
		<path id="XMLID_14_" class="st1" d="M522.1,77.2c-15.3-0.3-32.7,2.4-32.7,17.4c0,9.3,6.1,13.5,13.1,13.5c10.2,0,16.8-6.4,19-13
			c0.4-1.5,0.6-3,0.6-4.5V77.2z M535.8,98.1c0,6.7,0.3,13.3,1.1,18.5h-12.6l-1.3-9.8h-0.4c-4.2,6.1-12.6,11.6-23.7,11.6
			c-15.6,0-23.6-11.1-23.6-22.3c0-18.7,16.6-28.9,46.5-28.8v-1.6c0-6.4-1.8-18.1-17.6-17.9c-7.3,0-14.9,2.1-20.3,5.7l-3.2-9.4
			c6.4-4,15.8-6.7,25.6-6.7c23.8,0,29.6,16.1,29.6,31.6V98.1z"/>
		<path id="XMLID_11_" class="st1" d="M322.4,24.1c0-4.5-3.7-8.2-8.3-8.2c-4.6,0-8.3,3.7-8.3,8.2c0,4.6,3.7,8.3,8.3,8.3
			C318.6,32.4,322.4,28.7,322.4,24.1z M306.9,116.7V39.3H321v77.4H306.9z"/>
		<path id="XMLID_8_" class="st1" d="M455.8,24.1c0-4.5-3.7-8.2-8.2-8.2c-4.6,0-8.2,3.7-8.2,8.2c0,4.6,3.7,8.3,8.2,8.3
			C452.1,32.4,455.8,28.7,455.8,24.1z M439.9,116.7V39.3H454v77.4H439.9z"/>
		<path id="XMLID_7_" class="st1" d="M260.9,39.4l-20.5,2.8v2.5c4.5,0,8.6,1.2,8.7,9.4c0.1,3,0.1,6.1,0.1,9.4l-0.2,53.2h14.1V75.4
			c0-2.4,0.1-4.6,0.5-6.7c1.9-10.4,8.9-17.9,18.9-17.9c1.9,0,3.3,0.1,4.9,0.3V38.1c-1.3-0.3-2.4-0.5-3.8-0.5
			c-9.4,0-18,6.5-21.6,16.9h-0.5L260.9,39.4z"/>
		<path id="XMLID_6_" class="st1" d="M386.4,39.8c11.7,5.9,9.5,19.7,9.5,19.7c-3.4-6.3-9.9-11-18.3-11c-14.5,0-23.2,12.8-23.2,29.8
			c0,15.9,7.8,28.8,22.9,28.8c9.4,0,18-6.4,20.6-16.8c0.5-1.9,0.6-3.8,0.6-6.1V8.4h14.1v88.3c0,6.9,0.1,14.7,0.6,20h-12.6l-0.6-13.5
			h-0.3c-4.3,8.6-13.6,15.2-26.2,15.2c-18.7,0-33.2-15.9-33.2-39.4c-0.1-25.9,16-41.6,34.7-41.6C377.8,37.5,382.8,38,386.4,39.8z"/>
		<path id="XMLID_3_" class="st1" d="M631.5,27h-3.8v-1.2h9.1V27h-3.8v10.4h-1.4V27z M648.6,25.8h2.4v11.7h-1.4V27h-0.1l-4.2,10.4
			h-0.8L640.3,27h-0.1v10.4h-1.4V25.8h2.4l3.7,9.5L648.6,25.8z"/>
		<path class="st2" d="M87.3,168.9c-12.7,0-24.6-1.9-35.5-5.7c-8.7-3-16.7-7.2-23.7-12.5c-11.9-8.9-17.3-18-17.5-18.4
			c-0.6-1-1.2-2-1.7-3c0,0-0.4-0.7-0.4-1.4c0-1,0.8-2.7,2.7-2.7c1.4,0,2.4,1.3,2.4,1.3c1,1,5.4,8.2,16.8,15.8
			c10.6,7.2,29.2,15.7,57,15.7s46.3-8.5,57-15.7c11.3-7.6,15.8-14.8,16.8-15.8c0,0,0.9-1.3,2.4-1.3c1.9,0,2.7,1.7,2.7,2.7
			c0,0.7-0.4,1.4-0.4,1.4c-0.5,0.9-1.1,2-1.7,3c-0.2,0.4-5.6,9.5-17.5,18.4c-7.1,5.3-15.1,9.5-23.7,12.5
			C112,167,100,168.9,87.3,168.9z"/>
		<path id="XMLID_1_" class="st1" d="M39.3,17.7c0.5-6.4-10.1-5.4-10.1-5.4V9h28.4L76,61.1c4.5,13.3,8,25.1,10.9,36.3h0.3
			c2.9-10.9,6.7-22.7,11.5-36.3L117.8,9h17.7l6.7,107.7h-13.7L126,69.4c-0.8-15-1.8-33.2-1.8-46.5h-0.3c-3.9,12.5-8.2,26-13.6,40.9
			l-19,52.2H80.8L63.2,64.7c-5.1-15.3-9.3-29.1-12.3-41.8h-0.3c-0.3,13.4-1.1,31.3-2.1,47.6l-2.8,46.2H32.4L39.3,17.7z"/>
	</g>
</g>
<g id="Layer_1">
</g>
</svg>
