<?xml version="1.0" encoding="utf-8"?>
<!-- Generator: Adobe Illustrator 19.2.1, SVG Export Plug-In . SVG Version: 6.00 Build 0)  -->
<svg version="1.1" id="Layer_1" xmlns="http://www.w3.org/2000/svg" xmlns:xlink="http://www.w3.org/1999/xlink" x="0px" y="0px"
	 viewBox="0 0 360 224.7" style="enable-background:new 0 0 360 224.7;" xml:space="preserve">
<style type="text/css">
	.st0{fill:#FFFFFF;}
</style>
<g>
	<path class="st0" d="M12.8,205.1H6v11H0v-34.3h13.5c8,0,13,4.5,13,11.5C26.6,201,20.4,205.1,12.8,205.1 M13,187.3H6v12.3h7
		c4.6,0,7.4-2.5,7.4-6.2C20.4,189.4,17.5,187.3,13,187.3"/>
	<path class="st0" d="M54,216.1l-8.4-12H38v12h-6v-34.3h15.3c7.9,0,12.7,4.2,12.7,10.9c0,5.7-3.4,9.1-8.2,10.4l9.3,13H54z
		 M46.8,187.3H38v11.5h8.8c4.3,0,7.1-2.3,7.1-5.8C53.9,189.2,51.2,187.3,46.8,187.3"/>
	<path class="st0" d="M83,216.7c-10.5,0-17.9-8-17.9-17.7c0-9.7,7.4-17.8,18-17.8c10.5,0,17.9,8,17.9,17.7
		C101,208.6,93.6,216.7,83,216.7 M83,186.7c-6.8,0-11.6,5.4-11.6,12.2s4.8,12.2,11.7,12.2c6.8,0,11.6-5.4,11.6-12.1
		C94.7,192.3,89.8,186.7,83,186.7"/>
	<polygon class="st0" points="124.4,207.7 124.2,207.7 113.5,191.6 113.5,216.1 107.6,216.1 107.6,181.8 114,181.8 124.4,198 
		134.9,181.8 141.3,181.8 141.3,216.1 135.3,216.1 135.3,191.5 	"/>
	<polygon class="st0" points="175.3,187.2 155.9,187.2 155.9,196.1 173.1,196.1 173.1,201.5 155.9,201.5 155.9,210.7 175.5,210.7 
		175.5,216.1 149.8,216.1 149.8,181.8 175.3,181.8 	"/>
	<path class="st0" d="M196.4,196.2c7.3,1.8,11,4.4,11,10.1c0,6.5-5,10.3-12.2,10.3c-5.2,0-10.2-1.8-14.3-5.5l3.6-4.3
		c3.3,2.8,6.6,4.5,10.8,4.5c3.7,0,6.1-1.7,6.1-4.4c0-2.5-1.4-3.8-7.7-5.3c-7.3-1.8-11.4-3.9-11.4-10.3c0-6,4.9-10,11.7-10
		c5,0,9,1.5,12.4,4.3l-3.2,4.6c-3.1-2.3-6.2-3.5-9.3-3.5c-3.5,0-5.6,1.8-5.6,4.1C188.3,193.4,189.8,194.6,196.4,196.2"/>
	<path class="st0" d="M229.9,216.7c-10,0-17.4-7.8-17.4-17.7c0-9.8,7.3-17.8,17.7-17.8c6.3,0,10.1,2.2,13.4,5.3l-3.9,4.5
		c-2.7-2.5-5.7-4.3-9.6-4.3c-6.6,0-11.3,5.4-11.3,12.2c0,6.8,4.8,12.2,11.3,12.2c4.2,0,6.9-1.7,9.8-4.5l3.9,3.9
		C240.3,214.3,236.4,216.7,229.9,216.7"/>
	<polygon class="st0" points="276.1,187.2 256.7,187.2 256.7,196.1 273.9,196.1 273.9,201.5 256.7,201.5 256.7,210.7 276.3,210.7 
		276.3,216.1 250.7,216.1 250.7,181.8 276.1,181.8 	"/>
	<polygon class="st0" points="307.9,181.8 313.9,181.8 313.9,216.1 308.8,216.1 289.9,191.7 289.9,216.1 284,216.1 284,181.8 
		289.6,181.8 307.9,205.5 	"/>
	<polygon class="st0" points="338.1,216.1 332.1,216.1 332.1,187.4 321.2,187.4 321.2,181.8 349,181.8 349,187.4 338.1,187.4 	"/>
	<path class="st0" d="M356.6,188c-1.9,0-3.4-1.5-3.4-3.4c0-1.9,1.5-3.4,3.4-3.4c1.9,0,3.4,1.5,3.4,3.4
		C360,186.4,358.5,188,356.6,188 M356.6,181.5c-1.7,0-3,1.4-3,3.1c0,1.7,1.3,3,3,3c1.7,0,3-1.4,3-3.1
		C359.6,182.9,358.3,181.5,356.6,181.5 M357.4,184.9l1,1.3h-0.8l-0.9-1.2h-0.7v1.2h-0.7v-3.5h1.6c0.8,0,1.4,0.4,1.4,1.1
		C358.2,184.4,357.9,184.8,357.4,184.9 M356.8,183.3h-0.9v1.1h0.9c0.4,0,0.7-0.2,0.7-0.6C357.5,183.5,357.2,183.3,356.8,183.3"/>
	<path class="st0" d="M116.7,24.4c3.2-0.4,6.4-0.3,9.4,0.3c-9.2-6.1-20-8.4-30.7-6.6c-2.4,0.4-4.4,0.8-6.2,1.2
		C77.7,28.8,71,43,72.5,56.5c3,28.3,32.7,42,51.9,40l-0.1-1.3C99.1,93.3,90.8,75.8,89,58.7C87.2,41.6,99.6,26.2,116.7,24.4"/>
	<path class="st0" d="M259.9,19.3c-1.8-0.4-3.8-0.8-6.2-1.2c-10.8-1.8-21.6,0.5-30.8,6.6c3-0.5,6.2-0.6,9.4-0.3
		c17.1,1.8,29.5,17.1,27.7,34.2c-1.8,17.1-10.1,34.6-35.2,36.5l-0.1,1.3c19.2,2,48.9-11.7,51.9-40C278,43,271.3,28.8,259.9,19.3"/>
	<path class="st0" d="M234,8.3c-26-2.8-49.1,13.8-52.8,48.8l-6.7,52.2l-6.7-52.2C164.1,22.1,141,5.5,115,8.3
		c-5,0.5-9.7,1.8-14.1,3.8c10.6-0.4,21,2.7,29.9,9.1c9.9,7.1,16.8,17.8,19.5,29.6c0.6,2.5,1.1,5.2,1.4,8.1l14.4,88.6H183l14.4-88.6
		c0.3-2.9,0.8-5.6,1.4-8.1c2.7-11.8,9.6-22.5,19.5-29.6c8.9-6.4,19.3-9.5,29.9-9.1C243.8,10.1,239,8.8,234,8.3"/>
</g>
</svg>
