<?xml version="1.0" encoding="utf-8"?>
<!-- Generator: Adobe Illustrator 19.2.1, SVG Export Plug-In . SVG Version: 6.00 Build 0)  -->
<svg version="1.1" id="Layer_1" xmlns="http://www.w3.org/2000/svg" xmlns:xlink="http://www.w3.org/1999/xlink" x="0px" y="0px"
	 viewBox="0 0 162 110" style="enable-background:new 0 0 162 110;" xml:space="preserve">
<style type="text/css">
	.st0{fill:#58C5C7;}
	.st1{fill:none;}
</style>
<g>
	<path class="st0" d="M55.8,22.4c-0.7,2.6-1.1,5.3-1.1,8.1c0,13.3,10.5,22.7,20.2,29.6c9.4,7,14.3,12.1,14.3,19.7
		c0,5.8-3.1,9.6-9.4,9.6c-6.4,0-9.7-3.9-9.7-10.8v-5.6H53.9v6.6C53.9,94.3,64,104,80.2,104c7.6,0,13.9-2.6,18.5-6.9l-0.9,4.5h16.5
		l3.4-18.7h16.8l3.1,18.7h18L136.7,6.6h-19.8l-12.3,61.1c-3-7.7-9.3-13.8-17.4-19.8c-10.6-7.7-15.3-11.8-15.3-19.8
		c0-5.3,3.4-8.6,8.6-8.6c6,0,9,4.3,9,10.1v5.7h16.1v-6.1c0-14.1-10-24.4-24.9-24.4c-7.9,0-14,2.5-18.3,6.6V6.7H7v15.7h20.1v79.2
		h17.8V22.4H55.8z M132.3,68.9h-12.1l6.4-36.6L132.3,68.9z"/>
</g>
<rect x="24.5" y="-26.2" class="st1" width="112.8" height="162.2"/>
</svg>
