<?xml version="1.0" encoding="utf-8"?>
<!-- Generator: Adobe Illustrator 19.0.0, SVG Export Plug-In . SVG Version: 6.00 Build 0)  -->
<svg version="1.1" id="Layer_1" xmlns="http://www.w3.org/2000/svg" xmlns:xlink="http://www.w3.org/1999/xlink" x="0px" y="0px"
	 viewBox="-345 257 100 100" style="enable-background:new -345 257 100 100;" xml:space="preserve">
<style type="text/css">
	.st0{fill:#FFFFFF;}
	.st1{fill:none;}
</style>
<g>
	<path d="M-334.1,264.1v18.1h-4v-18.1h-4v-3.5h12v3.6h-4V264.1z"/>
	<path d="M-323,282.7c-3.8,0-6.2-2.5-6.2-5.9V266c0-3.4,2.4-5.9,6.2-5.9s6.2,2.5,6.2,5.9v10.8C-316.8,280.3-319.2,282.7-323,282.7z
		 M-320.9,265.7c0-1.3-0.7-2.1-2.1-2.1c-1.3,0-2,0.8-2,2.1V277c0,1.3,0.7,2.1,2,2.1s2.1-0.8,2.1-2.1V265.7z"/>
	<path d="M-304.6,282.4c-1.6,0-2.2-1.3-2.2-3.2v-4.1c0-1-0.5-1.9-1.7-1.9h-2.1v9h-4v-21.6h6.7c3,0,4.9,1.7,4.9,4.7v3.1
		c0,1.6-0.7,2.8-2.4,3.4c1.7,0.5,2.5,1.9,2.5,3.3v4c0,1,0.3,1.7,0.8,2.2v1.2h-2.5V282.4z M-306.9,265.4c0-1-0.4-1.6-1.4-1.6h-2.2
		v6.4h2.1c1,0,1.6-0.6,1.6-1.7L-306.9,265.4L-306.9,265.4z"/>
	<path d="M-294.7,282.7c-3.8,0-6.2-2.5-6.2-5.9V266c0-3.4,2.4-5.9,6.2-5.9c3.8,0,6.2,2.5,6.2,5.9v10.8
		C-288.5,280.3-290.9,282.7-294.7,282.7z M-292.6,265.7c0-1.3-0.7-2.1-2.1-2.1c-1.3,0-2.1,0.8-2.1,2.1V277c0,1.3,0.8,2.1,2.1,2.1
		c1.3,0,2.1-0.8,2.1-2.1V265.7z"/>
	<path d="M-276.9,282.2l-4.2-9.2l-1.5-3.4v12.7h-3.7v-21.7h3.5l4,9.4l1.4,3.5v-12.9h3.6v21.7L-276.9,282.2L-276.9,282.2z"/>
	<path d="M-264.3,264.1v18.1h-4.1v-18.1h-4v-3.5h12v3.6h-3.9V264.1z"/>
	<path d="M-253.2,282.7c-3.8,0-6.2-2.5-6.2-5.9V266c0-3.4,2.4-5.9,6.2-5.9s6.2,2.5,6.2,5.9v10.8C-247,280.3-249.4,282.7-253.2,282.7
		z M-251.1,265.7c0-1.3-0.7-2.1-2.1-2.1c-1.3,0-2,0.8-2,2.1V277c0,1.3,0.7,2.1,2,2.1s2.1-0.8,2.1-2.1V265.7z"/>
	<path d="M-335.7,306.7c-3.7,0-6-2.2-6-5.6v-1.5h3.7v1.3c0,1.6,0.7,2.5,2.2,2.5c1.4,0,2.2-0.8,2.2-2.2c0-1.7-1.1-2.9-3.3-4.5
		c-2.2-1.6-4.6-3.7-4.6-6.8s2-5.8,5.9-5.8c3.4,0,5.7,2.3,5.7,5.6v1.3h-3.7v-1.3c0-1.3-0.7-2.3-2.1-2.3c-1.2,0-2,0.8-2,2
		c0,1.8,1.1,2.8,3.5,4.5c2.6,1.9,4.4,3.9,4.4,6.8C-329.7,304.2-332.1,306.7-335.7,306.7z"/>
	<path d="M-321.8,306.7c-3.9,0-6.3-2.6-6.3-6V290c0-3.4,2.4-6,6.3-6c3.8,0,5.9,2.4,5.9,5.7v2.6h-3.6v-2.6c0-1.3-0.7-2.1-2.2-2.1
		s-2.2,0.9-2.2,2.1v11.4c0,1.2,0.8,2.1,2.2,2.1c1.5,0,2.2-0.9,2.2-2.1v-2.6h3.6v2.5C-315.9,304.3-317.9,306.7-321.8,306.7z"/>
	<path d="M-305.4,306.2v-8.9h-4.5v8.9h-4v-21.7h4v9.2h4.5v-9.2h4.1v21.7H-305.4z"/>
	<path d="M-293,306.7c-3.8,0-6.2-2.5-6.2-5.9V290c0-3.4,2.4-5.9,6.2-5.9s6.2,2.5,6.2,5.9v10.8C-286.8,304.2-289.1,306.7-293,306.7z
		 M-290.9,289.7c0-1.3-0.7-2.1-2.1-2.1c-1.3,0-2.1,0.8-2.1,2.1V301c0,1.3,0.8,2.1,2.1,2.1s2.1-0.8,2.1-2.1V289.7z"/>
	<path d="M-278.6,306.7c-3.8,0-6.2-2.5-6.2-5.9V290c0-3.4,2.4-5.9,6.2-5.9c3.8,0,6.2,2.5,6.2,5.9v10.8
		C-272.5,304.2-274.8,306.7-278.6,306.7z M-276.5,289.7c0-1.3-0.7-2.1-2.1-2.1c-1.3,0-2,0.8-2,2.1V301c0,1.3,0.7,2.1,2,2.1
		c1.3,0,2.1-0.8,2.1-2.1V289.7z"/>
	<path d="M-270.2,306.2v-21.7h4v18.1h6.1v3.6C-260.1,306.2-270.2,306.2-270.2,306.2z"/>
	<path d="M-335.1,330.7c-3.8,0-6.2-2.5-6.2-5.9V314c0-3.4,2.4-5.9,6.2-5.9c3.8,0,6.2,2.5,6.2,5.9v10.8
		C-329,328.2-331.3,330.7-335.1,330.7z M-333,313.7c0-1.3-0.7-2.1-2.1-2.1c-1.3,0-2.1,0.8-2.1,2.1V325c0,1.3,0.8,2.1,2.1,2.1
		c1.3,0,2.1-0.8,2.1-2.1V313.7z"/>
	<path d="M-322.7,311.9v5.7h4.5v3.4h-4.5v9.2h-4v-21.7h10.1v3.4H-322.7z"/>
	<path class="st0" d="M-333.2,354.2l-0.8-4.3h-3.8l-0.8,4.3h-3.8l4.4-21.7h4.5l4.3,21.7H-333.2z M-335.8,338.4l-1.5,8.4h2.8
		L-335.8,338.4z"/>
	<path class="st0" d="M-317.9,354.3c-1.6,0-2.2-1.3-2.2-3.2V347c0-1-0.5-1.9-1.7-1.9h-2.1v9h-4v-21.6h6.7c3,0,5,1.7,5,4.7v3.1
		c0,1.6-0.8,2.8-2.4,3.4c1.7,0.5,2.5,1.9,2.5,3.3v4c0,1,0.3,1.7,0.8,2.2v1.2h-2.6V354.3z M-320.2,337.4c0-1-0.4-1.6-1.4-1.6h-2.2
		v6.4h2.1c1,0,1.6-0.5,1.6-1.7v-3.1H-320.2z"/>
	<path class="st0" d="M-307.2,336.1v18.1h-4.1v-18.1h-4v-3.6h12v3.6H-307.2z"/>
</g>
<rect x="-351.4" y="251.4" class="st1" width="113.4" height="111.8"/>
</svg>
